<svg width="42.411" height="42.411" xmlns="http://www.w3.org/2000/svg">

 <g>
  <title>background</title>
  <rect fill="none" id="canvas_background" height="402" width="582" y="-1" x="-1"/>
 </g>
 <g>
  <title>Layer 1</title>
  <g id="svg_1">
   <g id="svg_2">
    <g id="svg_3">
     <path id="svg_4" fill="#949096" d="m36.722,9.456l-3.877,-3.878c-0.219,-0.219 -0.517,-0.343 -0.828,-0.343c-0.311,0 -0.609,0.124 -0.828,0.343l-30.846,30.846c-0.457,0.457 -0.457,1.199 0,1.656l3.877,3.877c0.228,0.228 0.528,0.343 0.828,0.343s0.599,-0.114 0.828,-0.343l30.846,-30.846c0.457,-0.456 0.457,-1.197 0,-1.655zm-31.674,30.018l-2.221,-2.221l29.19,-29.191l2.221,2.223l-29.19,29.189z"/>
     <path id="svg_5" fill="#949096" d="m38.468,24.762l-5.563,0l0,-4.422c0,-0.647 -0.481,-1.171 -1.127,-1.171s-1.127,0.524 -1.127,1.171l0,4.422l-4.816,0c-0.646,0 -1.171,0.48 -1.171,1.127c0,0.647 0.525,1.127 1.171,1.127l4.816,0l0,5.006c0,0.647 0.481,1.171 1.127,1.171s1.127,-0.524 1.127,-1.171l0,-5.006l5.563,0c0.647,0 1.172,-0.48 1.172,-1.127c-0.001,-0.646 -0.525,-1.127 -1.172,-1.127z"/>
     <path id="svg_6" fill="#949096" d="m10.101,11.233l4.764,0l0,4.701c0,0.647 0.481,1.171 1.127,1.171c0.646,0 1.127,-0.524 1.127,-1.171l0,-4.701l5.615,0c0.646,0 1.171,-0.48 1.171,-1.127c0,-0.647 -0.525,-1.127 -1.171,-1.127l-5.614,0l0,-4.727c0,-0.647 -0.481,-1.171 -1.127,-1.171c-0.646,0 -1.127,0.525 -1.127,1.171l0,4.727l-4.764,0c-0.647,0 -1.171,0.48 -1.171,1.127c-0.001,0.647 0.523,1.127 1.17,1.127z"/>
     <path id="svg_7" fill="#949096" d="m23.969,5.22l1.419,0l0,1.186c0,0.647 0.481,1.171 1.127,1.171c0.646,0 1.127,-0.524 1.127,-1.171l0,-1.186l1.87,0c0.646,0 1.171,-0.48 1.171,-1.127s-0.524,-1.127 -1.171,-1.127l-1.87,0l0,-1.685c0,-0.647 -0.48,-1.171 -1.127,-1.171c-0.647,0 -1.127,0.524 -1.127,1.171l0,1.684l-1.419,0c-0.646,0 -1.171,0.48 -1.171,1.127s0.525,1.128 1.171,1.128z"/>
     <path id="svg_8" fill="#949096" d="m41.24,14.991l-1.571,0l0,-1.62c0,-0.647 -0.481,-1.171 -1.127,-1.171c-0.647,0 -1.127,0.524 -1.127,1.171l0,1.62l-1.718,0c-0.646,0 -1.171,0.48 -1.171,1.127c0,0.647 0.524,1.127 1.171,1.127l1.718,0l0,1.251c0,0.647 0.48,1.171 1.127,1.171c0.646,0 1.127,-0.524 1.127,-1.171l0,-1.251l1.571,0c0.646,0 1.171,-0.48 1.171,-1.127c0,-0.646 -0.524,-1.127 -1.171,-1.127z"/>
    </g>
   </g>
  </g>
  <g id="svg_9"/>
  <g id="svg_10"/>
  <g id="svg_11"/>
  <g id="svg_12"/>
  <g id="svg_13"/>
  <g id="svg_14"/>
  <g id="svg_15"/>
  <g id="svg_16"/>
  <g id="svg_17"/>
  <g id="svg_18"/>
  <g id="svg_19"/>
  <g id="svg_20"/>
  <g id="svg_21"/>
  <g id="svg_22"/>
  <g id="svg_23"/>
  <line stroke="#949096" stroke-linecap="undefined" stroke-linejoin="undefined" id="svg_24" y2="38.766462" x2="37.628247" y1="4.294944" x1="6.408761" stroke-width="3.5" fill="none"/>
 </g>
</svg>
